<?xml version="1.0" encoding="UTF-8"?>
<svg width="15px" height="14px" viewBox="0 0 15 14" version="1.1" xmlns="http://www.w3.org/2000/svg" xmlns:xlink="http://www.w3.org/1999/xlink">
    <!-- Generator: Sketch 50.2 (55047) - http://www.bohemiancoding.com/sketch -->
    <title>icon</title>
    <desc>Created with Sketch.</desc>
    <defs>
        <path d="M11.4334403,1.16493363 C10.8430233,0.825724381 10.0872093,1.02625691 9.74639134,1.61488472 L3.05733761,13.1549829 C2.71651965,13.7426131 2.92000802,14.4958571 3.50942261,14.8350664 C4.09983962,15.1742756 4.85565357,14.9737431 5.19647153,14.3851153 L11.8855253,2.84501709 C12.2263432,2.25738695 12.0238573,1.50414288 11.4334403,1.16493363 Z M15,11.684411 C15,13.5051666 13.5144346,14.9827222 11.6860465,14.9827222 C9.85665597,14.9827222 8.37209302,13.5051666 8.37209302,11.684411 C8.37209302,9.8646532 9.85665597,8.38709761 11.6860465,8.38709761 C13.5144346,8.38709761 15,9.8646532 15,11.684411 Z M11.6810345,10.367481 C12.4087811,10.367481 12.9991981,10.9551112 12.9991981,11.6794227 C12.9991981,12.4037342 12.4087811,12.992362 11.6810345,12.992362 C10.9532879,12.992362 10.3618685,12.4037342 10.3618685,11.6794227 C10.3618685,10.9551112 10.9532879,10.367481 11.6810345,10.367481 Z M3.31395349,1.03124528 C5.14334403,1.03124528 6.62790698,2.50880086 6.62790698,4.32955639 C6.62790698,6.14931424 5.14334403,7.62686983 3.31395349,7.62686983 C1.48556536,7.62686983 0,6.14931424 0,4.32955639 C0,2.50880086 1.48556536,1.03124528 3.31395349,1.03124528 Z M4.62810746,4.32357034 C4.62810746,5.04887953 4.03668805,5.63650967 3.30894146,5.63650967 C2.58119487,5.63650967 1.99077787,5.04887953 1.99077787,4.32357034 C1.99077787,3.59925883 2.58119487,3.01162869 3.30894146,3.01162869 C4.03668805,3.01162869 4.62810746,3.59925883 4.62810746,4.32357034 Z" id="path-1"></path>
    </defs>
    <g id="Symbols" stroke="none" stroke-width="1" fill="none" fill-rule="evenodd">
        <g id="button-/-list-/-sub" transform="translate(-28.000000, -13.000000)">
            <g id="icon--/--categories--/--discounts" transform="translate(28.000000, 12.000000)">
                <mask id="mask-2" fill="white">
                    <use xlink:href="#path-1"></use>
                </mask>
                <g id="Shape"></g>
                <g id="Ñolor--/--colorIcon" mask="url(#mask-2)" fill="#333333" fill-rule="evenodd">
                    <g transform="translate(-3.000000, -3.000000)">
                        <rect x="0" y="0" width="21" height="21"></rect>
                    </g>
                </g>
            </g>
        </g>
    </g>
</svg>