<?xml version="1.0" encoding="UTF-8"?>
<svg width="14px" height="12px" viewBox="0 0 14 12" version="1.1" xmlns="http://www.w3.org/2000/svg" xmlns:xlink="http://www.w3.org/1999/xlink">
    <!-- Generator: Sketch 50.2 (55047) - http://www.bohemiancoding.com/sketch -->
    <title>icon</title>
    <desc>Created with Sketch.</desc>
    <defs>
        <path d="M1,3.5 C1,2.672 1.672,2 2.5,2 L7.5,2 C8.328,2 9,2.672 9,3.5 L9,4 L13.2,4 C14.193,4 15,4.807 15,5.8 L15,12.2 C15,13.193 14.193,14 13.2,14 L2.8,14 C1.807,14 1,13.193 1,12.2 L1,3.5 L1,3.5 Z" id="path-1"></path>
    </defs>
    <g id="Symbols" stroke="none" stroke-width="1" fill="none" fill-rule="evenodd">
        <g id="button-/-list-/-sub" transform="translate(-29.000000, -14.000000)">
            <g id="icon--/--navigation--/--folder" transform="translate(28.000000, 12.000000)">
                <rect id="bounds" x="0" y="0" width="16" height="16"></rect>
                <mask id="mask-2" fill="white">
                    <use xlink:href="#path-1"></use>
                </mask>
                <g id="Shape"></g>
                <g id="Ñolor--/--colorIcon" mask="url(#mask-2)" fill="#333333" fill-rule="evenodd">
                    <g transform="translate(-3.000000, -3.000000)">
                        <rect x="0" y="0" width="21" height="21"></rect>
                    </g>
                </g>
            </g>
        </g>
    </g>
</svg>