<?xml version="1.0" encoding="UTF-8"?>
<svg width="16px" height="15px" viewBox="0 0 16 15" version="1.1" xmlns="http://www.w3.org/2000/svg" xmlns:xlink="http://www.w3.org/1999/xlink">
    <!-- Generator: Sketch 50.2 (55047) - http://www.bohemiancoding.com/sketch -->
    <title>icon</title>
    <desc>Created with Sketch.</desc>
    <defs>
        <path d="M14.5,16 L4.5,16 C3.672,16 3,15.328 3,14.5 L3,6.5 C3,5.672 3.672,5 4.5,5 L14.5,5 C15.328,5 16,5.672 16,6.5 L16,14.5 C16,15.328 15.328,16 14.5,16 Z M9.491,12.972 C9.3,12.971 9.168,12.908 9.009,12.773 C8.944,12.718 8.921,12.694 8.887,12.658 L7.889,11.66 L6.235,13.314 C5.953,13.596 5.495,13.596 5.213,13.314 C4.93,13.032 4.93,12.574 5.213,12.292 L6.866,10.638 L5.223,8.994 C4.928,8.699 4.928,8.22 5.223,7.924 C5.371,7.776 5.565,7.703 5.758,7.703 L5.768,7.703 C5.958,7.705 6.148,7.779 6.294,7.924 L9.5,11.138 L12.706,7.924 C12.852,7.779 13.042,7.705 13.232,7.703 L13.242,7.703 C13.435,7.703 13.629,7.776 13.777,7.924 C14.072,8.22 14.072,8.699 13.777,8.994 L12.134,10.638 L13.787,12.292 C14.07,12.574 14.07,13.032 13.787,13.314 C13.505,13.596 13.047,13.596 12.765,13.314 L11.111,11.66 L10.113,12.658 C10.079,12.694 10.056,12.718 9.991,12.773 C9.83,12.91 9.696,12.973 9.5,12.972 L9.491,12.972 Z M2,11 L1.5,11 C0.672,11 0,10.328 0,9.5 L0,2.5 C0,1.672 0.672,1 1.5,1 L10.5,1 C11.328,1 12,1.672 12,2.5 L12,4 L4.072,4 C2.928,4 2,4.928 2,6.072 L2,11 Z" id="path-1"></path>
    </defs>
    <g id="Symbols" stroke="none" stroke-width="1" fill="none" fill-rule="evenodd">
        <g id="button-/-list-/-sub" transform="translate(-28.000000, -13.000000)">
            <g id="icon--/--categories--/--mailings" transform="translate(28.000000, 12.000000)">
                <rect id="bounds" x="0" y="0" width="16" height="16"></rect>
                <mask id="mask-2" fill="white">
                    <use xlink:href="#path-1"></use>
                </mask>
                <g id="Shape"></g>
                <g id="Ñolor--/--colorIcon" mask="url(#mask-2)" fill="#333333" fill-rule="evenodd">
                    <g transform="translate(-3.000000, -3.000000)">
                        <rect x="0" y="0" width="21" height="21"></rect>
                    </g>
                </g>
            </g>
        </g>
    </g>
</svg>