<?xml version="1.0" encoding="UTF-8"?>
<svg width="14px" height="12px" viewBox="0 0 14 12" version="1.1" xmlns="http://www.w3.org/2000/svg" xmlns:xlink="http://www.w3.org/1999/xlink">
    <!-- Generator: Sketch 50.2 (55047) - http://www.bohemiancoding.com/sketch -->
    <title>item</title>
    <desc>Created with Sketch.</desc>
    <defs>
        <rect id="path-1" x="0" y="0" width="40" height="40" rx="4"></rect>
        <path d="M14,12 C14.552,12 15,12.448 15,13 C15,13.552 14.552,14 14,14 L2,14 C1.448,14 1,13.552 1,13 C1,12.448 1.448,12 2,12 L14,12 Z M14,7 C14.552,7 15,7.448 15,8 C15,8.552 14.552,9 14,9 L2,9 C1.448,9 1,8.552 1,8 C1,7.448 1.448,7 2,7 L14,7 Z M14,2 C14.552,2 15,2.448 15,3 C15,3.552 14.552,4 14,4 L2,4 C1.448,4 1,3.552 1,3 C1,2.448 1.448,2 2,2 L14,2 Z" id="path-3"></path>
    </defs>
    <g id="Dropdowns" stroke="none" stroke-width="1" fill="none" fill-rule="evenodd">
        <g id="1366_3pane_list_filter" transform="translate(-21.000000, -98.000000)">
            <g id="folders" transform="translate(8.000000, 84.000000)">
                <g id="button-/-no-border-/-icon">
                    <g id="bg" stroke-width="1" fill-rule="evenodd">
                        <mask id="mask-2" fill="white">
                            <use xlink:href="#path-1"></use>
                        </mask>
                        <g id="mask"></g>
                        <g mask="url(#mask-2)" fill="#FFFFFF" fill-opacity="0" id="state-/-normal">
                            <g>
                                <polygon id="bg" points="0 0 40 0 40 40 0 40"></polygon>
                            </g>
                        </g>
                    </g>
                    <g id="icon--/--navigation--/--menu" transform="translate(12.000000, 12.000000)">
                        <rect id="bounds" x="0" y="0" width="16" height="16"></rect>
                        <mask id="mask-4" fill="white">
                            <use xlink:href="#path-3"></use>
                        </mask>
                        <g id="Shape"></g>
                        <g id="Ñolor--/--colorIcon" mask="url(#mask-4)" fill="#333333" fill-rule="evenodd">
                            <g transform="translate(-3.000000, -3.000000)" id="bg">
                                <rect x="0" y="0" width="21" height="21"></rect>
                            </g>
                        </g>
                    </g>
                </g>
            </g>
        </g>
    </g>
</svg>