<?xml version="1.0" encoding="UTF-8"?>
<svg width="15px" height="12px" viewBox="0 0 15 12" version="1.1" xmlns="http://www.w3.org/2000/svg" xmlns:xlink="http://www.w3.org/1999/xlink">
    <!-- Generator: Sketch 50.2 (55047) - http://www.bohemiancoding.com/sketch -->
    <title>icon</title>
    <desc>Created with Sketch.</desc>
    <defs>
        <path d="M13,12.998 C12.997,12.932 12.881,10.817 9,10.814 C8.686,10.814 8.341,10.813 8,10.813 L8,12.714 C8,13.424 7.424,14 6.714,14 C6.432,14 6.171,13.909 5.959,13.754 L5.959,13.755 L5.954,13.751 C5.903,13.713 5.855,13.672 5.81,13.627 L0.655,9.218 L0.656,9.218 C0.259,8.946 0,8.501 0,8 C0,7.499 0.259,7.055 0.655,6.783 L0.655,6.782 L5.807,2.376 C6.039,2.144 6.36,2 6.714,2 C7.424,2 8,2.576 8,3.286 L8,5.168 C8.415,5.168 8.79,5.169 9,5.17 C15.407,5.205 15.014,12.758 15,12.994 L15,13 C15,13.552 14.552,14 14,14 C13.448,14 13,13.552 13,13 L13,12.998 Z" id="path-1"></path>
    </defs>
    <g id="Symbols" stroke="none" stroke-width="1" fill="none" fill-rule="evenodd">
        <g id="button-/-list-/-default" transform="translate(-12.000000, -14.000000)">
            <g id="icon--/--actions--/--reply" transform="translate(12.000000, 12.000000)">
                <rect id="bounds" x="0" y="0" width="16" height="16"></rect>
                <mask id="mask-2" fill="white">
                    <use xlink:href="#path-1"></use>
                </mask>
                <g id="Shape"></g>
                <g id="Ñolor--/--colorIcon" mask="url(#mask-2)" fill="#333333" fill-rule="evenodd">
                    <g transform="translate(-3.000000, -3.000000)">
                        <rect x="0" y="0" width="21" height="21"></rect>
                    </g>
                </g>
            </g>
        </g>
    </g>
</svg>