<?xml version="1.0" encoding="UTF-8"?>
<svg width="16px" height="16px" viewBox="0 0 16 16" version="1.1" xmlns="http://www.w3.org/2000/svg" xmlns:xlink="http://www.w3.org/1999/xlink">
    <!-- Generator: Sketch 50.2 (55047) - http://www.bohemiancoding.com/sketch -->
    <title>icon</title>
    <desc>Created with Sketch.</desc>
    <defs>
        <path d="M10.731,1.955 C10.912,2.255 11.237,2.439 11.588,2.439 L13.778,2.439 C14.135,2.439 14.465,2.63 14.644,2.939 C14.942,3.456 15.405,4.257 15.705,4.778 C15.887,5.093 15.884,5.482 15.696,5.793 C15.406,6.276 14.971,6.999 14.679,7.484 C14.488,7.802 14.488,8.198 14.679,8.516 C14.971,9.001 15.406,9.724 15.696,10.207 C15.884,10.518 15.887,10.907 15.705,11.222 C15.405,11.743 14.942,12.544 14.644,13.061 C14.465,13.37 14.135,13.561 13.778,13.561 L11.588,13.561 C11.237,13.561 10.912,13.745 10.731,14.045 C10.483,14.458 10.128,15.047 9.88,15.459 C9.699,15.76 9.374,15.944 9.023,15.944 L6.977,15.944 C6.626,15.944 6.301,15.76 6.12,15.459 C5.872,15.047 5.517,14.458 5.269,14.045 C5.088,13.745 4.763,13.561 4.412,13.561 L2.222,13.561 C1.865,13.561 1.535,13.37 1.356,13.061 C1.058,12.544 0.595,11.743 0.295,11.222 C0.113,10.907 0.116,10.518 0.304,10.207 C0.594,9.724 1.029,9.001 1.321,8.516 C1.512,8.198 1.512,7.802 1.321,7.484 C1.029,6.999 0.594,6.276 0.304,5.793 C0.116,5.482 0.113,5.093 0.295,4.778 C0.595,4.257 1.058,3.456 1.356,2.939 C1.535,2.63 1.865,2.439 2.222,2.439 L4.412,2.439 C4.763,2.439 5.088,2.255 5.269,1.955 C5.517,1.542 5.872,0.953 6.12,0.541 C6.301,0.24 6.626,0.056 6.977,0.056 L9.023,0.056 C9.374,0.056 9.699,0.24 9.88,0.541 C10.128,0.953 10.483,1.542 10.731,1.955 L10.731,1.955 Z M8,5 C9.656,5 11,6.344 11,8 C11,9.656 9.656,11 8,11 C6.344,11 5,9.656 5,8 C5,6.344 6.344,5 8,5 Z" id="path-1"></path>
    </defs>
    <g id="Symbols" stroke="none" stroke-width="1" fill="none" fill-rule="evenodd">
        <g id="button-/-no-border-/-icon" transform="translate(-12.000000, -12.000000)">
            <g id="icon--/--navigation--/--settings" transform="translate(12.000000, 12.000000)">
                <rect id="bounds" x="0" y="0" width="16" height="16"></rect>
                <mask id="mask-2" fill="white">
                    <use xlink:href="#path-1"></use>
                </mask>
                <g id="Shape"></g>
                <g id="Ñolor--/--colorIcon" mask="url(#mask-2)" fill="#333333" fill-rule="evenodd">
                    <g transform="translate(-3.000000, -3.000000)">
                        <rect x="0" y="0" width="21" height="21"></rect>
                    </g>
                </g>
            </g>
        </g>
    </g>
</svg>